# xmcd
# 
# Track frame offsets:
#     150
#     22580
#     42980
#     69537
# 
# Disc length: 1084
# 
# Revision: 2
# Processed by: cddbd v1.5.2PL0 Copyright (c) Steve Scherf et al.
# Submitted via: BonkEnc v1.0
# 
DISCID=27043a04
DTITLE=Aerosmith - I don't want to miss a thing(Maxi Single)
DYEAR=1998
DGENRE=Rock
TTITLE0=I don't want to miss a thing
TTITLE1=I don't want to miss a thing (rock mix)
TTITLE2=Taste of India (rock remix)
TTITLE3=Animal crackers
EXTD=
EXTT0=
EXTT1=
EXTT2=
EXTT3=
PLAYORDER=
